<?xml version="1.0" encoding="UTF-8" standalone="no"?>
<svg width="305px" height="71px" viewBox="0 0 305 71" version="1.1" xmlns="http://www.w3.org/2000/svg" xmlns:xlink="http://www.w3.org/1999/xlink" xmlns:sketch="http://www.bohemiancoding.com/sketch/ns">
    <!-- Generator: Sketch 3.5.1 (25234) - http://www.bohemiancoding.com/sketch -->
    <title>FLYNK</title>
    <desc>Created with Sketch.</desc>
    <defs></defs>
    <g id="Page-1" stroke="none" stroke-width="1" fill="none" fill-rule="evenodd" sketch:type="MSPage">
        <g id="Desktop" sketch:type="MSArtboardGroup" transform="translate(-362.000000, -420.000000)" fill="#3FCCD8">
            <path d="M380.725586,491 L380.725586,464.730469 L408.020508,464.730469 L408.020508,451.009766 L380.725586,451.009766 L380.725586,434.994141 L410.754883,434.994141 L410.754883,420.541016 L362.805664,420.541016 L362.805664,491 L380.725586,491 Z M465.735352,476.546875 L436.584961,476.546875 L436.584961,420.541016 L418.665039,420.541016 L418.665039,491 L465.735352,491 L465.735352,476.546875 Z M500.208008,491 L500.208008,466.78125 L524.475586,420.541016 L505.579102,420.541016 L491.614258,449.837891 L491.272461,449.837891 L477.258789,420.541016 L458.020508,420.541016 L482.288086,466.78125 L482.288086,491 L500.208008,491 Z M548.206055,491 L548.206055,449.642578 L548.59668,449.642578 L578.625977,491 L592.786133,491 L592.786133,420.541016 L575.793945,420.541016 L575.793945,461.507812 L575.40332,461.507812 L545.520508,420.541016 L531.213867,420.541016 L531.213867,491 L548.206055,491 Z M621.350586,491 L621.350586,471.078125 L627.356445,463.460938 L645.325195,491 L666.370117,491 L640.393555,451.839844 L664.954102,420.541016 L645.71582,420.541016 L621.741211,451.498047 L621.350586,451.498047 L621.350586,420.541016 L603.430664,420.541016 L603.430664,491 L621.350586,491 Z" id="FLYNK" sketch:type="MSShapeGroup"></path>
        </g>
    </g>
</svg>